{"accessors" : [{"bufferView" : 0, "byteOffset" : 0, "componentType" : 5123, "count" : 3840, "type" : "SCALAR", "max" : [3839], "min" : [0]}, {"bufferView" : 1, "byteOffset" : 0, "componentType" : 5126, "count" : 3840, "type" : "VEC3", "max" : [0.8824273347854614, 0.9735277891159058, 3.6951799392700195], "min" : [-0.847303569316864, -0.9736313223838806, 1.642416000366211], "name" : "POSITION"}, {"bufferView" : 1, "byteOffset" : 12, "componentType" : 5126, "count" : 3840, "type" : "VEC3", "max" : [1.0000044107437134, 1.0000044107437134, 1.0000044107437134], "min" : [-1.0000044107437134, -1.0000044107437134, -1.0000044107437134], "name" : "NORMAL"}, {"bufferView" : 0, "byteOffset" : 7680, "componentType" : 5123, "count" : 14208, "type" : "SCALAR", "max" : [14207], "min" : [0]}, {"bufferView" : 2, "byteOffset" : 0, "componentType" : 5126, "count" : 14208, "type" : "VEC3", "max" : [0.9957505464553833, 0.9983454942703247, 1], "min" : [-0.9951761960983276, -0.9983519315719604, -1], "name" : "POSITION"}, {"bufferView" : 2, "byteOffset" : 12, "componentType" : 5126, "count" : 14208, "type" : "VEC3", "max" : [0.9998338222503662, 0.9999794960021973, 1.0000044107437134], "min" : [-0.9996088147163391, -0.9999793171882629, -1.0000044107437134], "name" : "NORMAL"}, {"bufferView" : 0, "byteOffset" : 36096, "componentType" : 5123, "count" : 1728, "type" : "SCALAR", "max" : [1727], "min" : [0]}, {"bufferView" : 3, "byteOffset" : 0, "componentType" : 5126, "count" : 1728, "type" : "VEC3", "max" : [0.9375, 0.9486044645309448, 0.9375], "min" : [-0.9375, -0.9988511204719543, -0.9375], "name" : "POSITION"}, {"bufferView" : 3, "byteOffset" : 12, "componentType" : 5126, "count" : 1728, "type" : "VEC3", "max" : [0.9863982796669006, 0.9821404814720154, 0.9863982796669006], "min" : [-0.9863982796669006, -1.0000016689300537, -0.9863982796669006], "name" : "NORMAL"}, {"bufferView" : 0, "byteOffset" : 39552, "componentType" : 5123, "count" : 1728, "type" : "SCALAR", "max" : [1727], "min" : [0]}, {"bufferView" : 4, "byteOffset" : 0, "componentType" : 5126, "count" : 1728, "type" : "VEC3", "max" : [0.9375, 0.9486044645309448, 0.9375], "min" : [-0.9375, -0.9988511204719543, -0.9375], "name" : "POSITION"}, {"bufferView" : 4, "byteOffset" : 12, "componentType" : 5126, "count" : 1728, "type" : "VEC3", "max" : [0.9863982796669006, 0.9821404814720154, 0.9863982796669006], "min" : [-0.9863982796669006, -1.0000016689300537, -0.9863982796669006], "name" : "NORMAL"}, {"bufferView" : 0, "byteOffset" : 43008, "componentType" : 5123, "count" : 372, "type" : "SCALAR", "max" : [371], "min" : [0]}, {"bufferView" : 5, "byteOffset" : 0, "componentType" : 5126, "count" : 372, "type" : "VEC3", "max" : [1, 1, 1], "min" : [-1, -1, -1], "name" : "POSITION"}, {"bufferView" : 5, "byteOffset" : 12, "componentType" : 5126, "count" : 372, "type" : "VEC3", "max" : [0.9951891303062439, 0.9951891899108887, 1.0000044107437134], "min" : [-0.9951891899108887, -0.9951891303062439, -1.0000044107437134], "name" : "NORMAL"}, {"bufferView" : 0, "byteOffset" : 43752, "componentType" : 5123, "count" : 372, "type" : "SCALAR", "max" : [371], "min" : [0]}, {"bufferView" : 6, "byteOffset" : 0, "componentType" : 5126, "count" : 372, "type" : "VEC3", "max" : [1, 1, 1], "min" : [-1, -1, -1], "name" : "POSITION"}, {"bufferView" : 6, "byteOffset" : 12, "componentType" : 5126, "count" : 372, "type" : "VEC3", "max" : [0.9951891303062439, 0.9951891899108887, 1.0000044107437134], "min" : [-0.9951891899108887, -0.9951891303062439, -1.0000044107437134], "name" : "NORMAL"}, {"bufferView" : 0, "byteOffset" : 44496, "componentType" : 5123, "count" : 372, "type" : "SCALAR", "max" : [371], "min" : [0]}, {"bufferView" : 7, "byteOffset" : 0, "componentType" : 5126, "count" : 372, "type" : "VEC3", "max" : [1, 1, 1], "min" : [-1, -1, -1], "name" : "POSITION"}, {"bufferView" : 7, "byteOffset" : 12, "componentType" : 5126, "count" : 372, "type" : "VEC3", "max" : [0.9951891303062439, 0.9951891899108887, 1.0000044107437134], "min" : [-0.9951891899108887, -0.9951891303062439, -1.0000044107437134], "name" : "NORMAL"}, {"bufferView" : 0, "byteOffset" : 45240, "componentType" : 5123, "count" : 1728, "type" : "SCALAR", "max" : [1727], "min" : [0]}, {"bufferView" : 8, "byteOffset" : 0, "componentType" : 5126, "count" : 1728, "type" : "VEC3", "max" : [0.9375, 0.9486044645309448, 0.9375], "min" : [-0.9375, -0.9988511204719543, -0.9375], "name" : "POSITION"}, {"bufferView" : 8, "byteOffset" : 12, "componentType" : 5126, "count" : 1728, "type" : "VEC3", "max" : [0.9863982796669006, 0.9821404814720154, 0.9863982796669006], "min" : [-0.9863982796669006, -1.0000016689300537, -0.9863982796669006], "name" : "NORMAL"}, {"bufferView" : 0, "byteOffset" : 48696, "componentType" : 5123, "count" : 2688, "type" : "SCALAR", "max" : [2687], "min" : [0]}, {"bufferView" : 9, "byteOffset" : 0, "componentType" : 5126, "count" : 2688, "type" : "VEC3", "max" : [0.9402256011962891, 2.02200984954834, 0.9575223326683044], "min" : [-0.9972743988037109, -2.02200984954834, -0.9575222730636597], "name" : "POSITION"}, {"bufferView" : 9, "byteOffset" : 12, "componentType" : 5126, "count" : 2688, "type" : "VEC3", "max" : [0.9667102098464966, 1.0000040531158447, 0.9983185529708862], "min" : [-0.9999778270721436, -1.0000040531158447, -0.9983185529708862], "name" : "NORMAL"}, {"bufferView" : 9, "byteOffset" : 24, "componentType" : 5126, "count" : 2688, "type" : "VEC2", "max" : [1.8630092144012451, 1.8630092144012451], "min" : [-0.8630092144012451, -0.8630092144012451], "name" : "TEXCOORD_0"}, {"bufferView" : 0, "byteOffset" : 54072, "componentType" : 5123, "count" : 16128, "type" : "SCALAR", "max" : [16127], "min" : [0]}, {"bufferView" : 10, "byteOffset" : 0, "componentType" : 5126, "count" : 16128, "type" : "VEC3", "max" : [0.9909194707870483, 1.1958343982696533, 2.183493137359619], "min" : [-0.9909195899963379, -1.0758113861083984, -2.183493137359619], "name" : "POSITION"}, {"bufferView" : 10, "byteOffset" : 12, "componentType" : 5126, "count" : 16128, "type" : "VEC3", "max" : [0.9997772574424744, 1.0000044107437134, 0.99992436170578], "min" : [-0.9997772574424744, -1.0000044107437134, -0.99992436170578], "name" : "NORMAL"}, {"bufferView" : 10, "byteOffset" : 24, "componentType" : 5126, "count" : 16128, "type" : "VEC2", "max" : [1.5388226509094238, 1.2692162990570068], "min" : [-0.9107129573822021, -0.2692161798477173], "name" : "TEXCOORD_0"}, {"bufferView" : 0, "byteOffset" : 86328, "componentType" : 5123, "count" : 16128, "type" : "SCALAR", "max" : [16127], "min" : [0]}, {"bufferView" : 11, "byteOffset" : 0, "componentType" : 5126, "count" : 16128, "type" : "VEC3", "max" : [0.9909194707870483, 1.1958343982696533, 2.183493137359619], "min" : [-0.9909195899963379, -1.0758113861083984, -2.183493137359619], "name" : "POSITION"}, {"bufferView" : 11, "byteOffset" : 12, "componentType" : 5126, "count" : 16128, "type" : "VEC3", "max" : [0.9997772574424744, 1.0000044107437134, 0.99992436170578], "min" : [-0.9997772574424744, -1.0000044107437134, -0.99992436170578], "name" : "NORMAL"}, {"bufferView" : 11, "byteOffset" : 24, "componentType" : 5126, "count" : 16128, "type" : "VEC2", "max" : [1.4371724128723145, 1.2053747177124023], "min" : [-0.8090627193450928, -0.20537471771240234], "name" : "TEXCOORD_0"}, {"bufferView" : 0, "byteOffset" : 118584, "componentType" : 5123, "count" : 10368, "type" : "SCALAR", "max" : [10367], "min" : [0]}, {"bufferView" : 12, "byteOffset" : 0, "componentType" : 5126, "count" : 10368, "type" : "VEC3", "max" : [0.990919828414917, 1, 0.9717411994934082], "min" : [-0.990919828414917, -1, -0.9717411994934082], "name" : "POSITION"}, {"bufferView" : 12, "byteOffset" : 12, "componentType" : 5126, "count" : 10368, "type" : "VEC3", "max" : [0.9997113943099976, 1.0000044107437134, 1.0000042915344238], "min" : [-0.9997113943099976, -1.0000044107437134, -1.0000042915344238], "name" : "NORMAL"}, {"bufferView" : 12, "byteOffset" : 24, "componentType" : 5126, "count" : 10368, "type" : "VEC2", "max" : [1.5388226509094238, 1.2692162990570068], "min" : [-0.9107129573822021, -0.2692161798477173], "name" : "TEXCOORD_0"}, {"bufferView" : 0, "byteOffset" : 139320, "componentType" : 5123, "count" : 10368, "type" : "SCALAR", "max" : [10367], "min" : [0]}, {"bufferView" : 13, "byteOffset" : 0, "componentType" : 5126, "count" : 10368, "type" : "VEC3", "max" : [0.990919828414917, 1, 0.9717411994934082], "min" : [-0.990919828414917, -1, -0.9717411994934082], "name" : "POSITION"}, {"bufferView" : 13, "byteOffset" : 12, "componentType" : 5126, "count" : 10368, "type" : "VEC3", "max" : [0.9997113943099976, 1.0000044107437134, 1.0000042915344238], "min" : [-0.9997113943099976, -1.0000044107437134, -1.0000042915344238], "name" : "NORMAL"}, {"bufferView" : 13, "byteOffset" : 24, "componentType" : 5126, "count" : 10368, "type" : "VEC2", "max" : [1.5388226509094238, 1.2692162990570068], "min" : [-0.9107129573822021, -0.2692161798477173], "name" : "TEXCOORD_0"}, {"bufferView" : 0, "byteOffset" : 160056, "componentType" : 5123, "count" : 36, "type" : "SCALAR", "max" : [35], "min" : [0]}, {"bufferView" : 14, "byteOffset" : 0, "componentType" : 5126, "count" : 36, "type" : "VEC3", "max" : [-0.6178779006004333, 2.5474648475646973, 1.1032010316848755], "min" : [-0.6689909100532532, -2.5474648475646973, -1.1032010316848755], "name" : "POSITION"}, {"bufferView" : 14, "byteOffset" : 12, "componentType" : 5126, "count" : 36, "type" : "VEC3", "max" : [1.0000044107437134, 1.0000044107437134, 1.0000044107437134], "min" : [-1.0000044107437134, -1.0000044107437134, -1.0000044107437134], "name" : "NORMAL"}, {"bufferView" : 14, "byteOffset" : 24, "componentType" : 5126, "count" : 36, "type" : "VEC2", "max" : [1, 1], "min" : [0, 0], "name" : "TEXCOORD_0"}], "asset" : {"generator" : "Aspose.3D 24.4.1", "version" : "2.0"}, "buffers" : [{"uri" : "data:application/octet-stream;base64,", "byteLength" : 2527452}], "bufferViews" : [{"buffer" : 0, "byteOffset" : 0, "byteLength" : 160128, "target" : 34963}, {"buffer" : 0, "byteOffset" : 160132, "byteLength" : 92160, "byteStride" : 24, "target" : 34962}, {"buffer" : 0, "byteOffset" : 252296, "byteLength" : 340992, "byteStride" : 24, "target" : 34962}, {"buffer" : 0, "byteOffset" : 593292, "byteLength" : 41472, "byteStride" : 24, "target" : 34962}, {"buffer" : 0, "byteOffset" : 634768, "byteLength" : 41472, "byteStride" : 24, "target" : 34962}, {"buffer" : 0, "byteOffset" : 676244, "byteLength" : 8928, "byteStride" : 24, "target" : 34962}, {"buffer" : 0, "byteOffset" : 685176, "byteLength" : 8928, "byteStride" : 24, "target" : 34962}, {"buffer" : 0, "byteOffset" : 694108, "byteLength" : 8928, "byteStride" : 24, "target" : 34962}, {"buffer" : 0, "byteOffset" : 703040, "byteLength" : 41472, "byteStride" : 24, "target" : 34962}, {"buffer" : 0, "byteOffset" : 744516, "byteLength" : 86016, "byteStride" : 32, "target" : 34962}, {"buffer" : 0, "byteOffset" : 830536, "byteLength" : 516096, "byteStride" : 32, "target" : 34962}, {"buffer" : 0, "byteOffset" : 1346636, "byteLength" : 516096, "byteStride" : 32, "target" : 34962}, {"buffer" : 0, "byteOffset" : 1862736, "byteLength" : 331776, "byteStride" : 32, "target" : 34962}, {"buffer" : 0, "byteOffset" : 2194516, "byteLength" : 331776, "byteStride" : 32, "target" : 34962}, {"buffer" : 0, "byteOffset" : 2526296, "byteLength" : 1152, "byteStride" : 32, "target" : 34962}], "materials" : [{"name" : "EraserUp", "pbrMetallicRoughness" : {"baseColorFactor" : [0.8, 0.8, 0.8, 1], "metallicFactor" : 1, "roughnessFactor" : 1}, "emissiveFactor" : [0, 0, 0], "alphaMode" : "OPAQUE", "doubleSided" : false}, {"name" : "BlackBoardBase", "pbrMetallicRoughness" : {"baseColorFactor" : [0.8, 0.8, 0.8, 1], "metallicFactor" : 1, "roughnessFactor" : 1}, "emissiveFactor" : [0, 0, 0], "alphaMode" : "OPAQUE", "doubleSided" : false}, {"name" : "RedChalk", "pbrMetallicRoughness" : {"baseColorFactor" : [0.8, 0.8, 0.8, 1], "metallicFactor" : 1, "roughnessFactor" : 1}, "emissiveFactor" : [0, 0, 0], "alphaMode" : "OPAQUE", "doubleSided" : false}, {"name" : "Blue_Chalk", "pbrMetallicRoughness" : {"baseColorFactor" : [0.8, 0.8, 0.8, 1], "metallicFactor" : 1, "roughnessFactor" : 1}, "emissiveFactor" : [0, 0, 0], "alphaMode" : "OPAQUE", "doubleSided" : false}, {"name" : "GreenChalk", "pbrMetallicRoughness" : {"baseColorFactor" : [0.8, 0.8, 0.8, 1], "metallicFactor" : 1, "roughnessFactor" : 1}, "emissiveFactor" : [0, 0, 0], "alphaMode" : "OPAQUE", "doubleSided" : false}, {"name" : "WhiteChalk", "pbrMetallicRoughness" : {"baseColorFactor" : [0.8, 0.8, 0.8, 1], "metallicFactor" : 1, "roughnessFactor" : 1}, "emissiveFactor" : [0, 0, 0], "alphaMode" : "OPAQUE", "doubleSided" : false}, {"name" : "Board_Wood_Mat", "pbrMetallicRoughness" : {"baseColorFactor" : [0.8, 0.8, 0.8, 1], "metallicFactor" : 1, "roughnessFactor" : 1}, "emissiveFactor" : [0, 0, 0], "alphaMode" : "OPAQUE", "doubleSided" : false}, {"name" : "Board_Wood_Mat", "pbrMetallicRoughness" : {"baseColorFactor" : [0.8, 0.8, 0.8, 1], "metallicFactor" : 1, "roughnessFactor" : 1}, "emissiveFactor" : [0, 0, 0], "alphaMode" : "OPAQUE", "doubleSided" : false}, {"name" : "Board_Wood_Mat", "pbrMetallicRoughness" : {"baseColorFactor" : [0.8, 0.8, 0.8, 1], "metallicFactor" : 1, "roughnessFactor" : 1}, "emissiveFactor" : [0, 0, 0], "alphaMode" : "OPAQUE", "doubleSided" : false}, {"name" : "Board_Wood_Mat", "pbrMetallicRoughness" : {"baseColorFactor" : [0.8, 0.8, 0.8, 1], "metallicFactor" : 1, "roughnessFactor" : 1}, "emissiveFactor" : [0, 0, 0], "alphaMode" : "OPAQUE", "doubleSided" : false}, {"name" : "Board_Wood_Mat", "pbrMetallicRoughness" : {"baseColorFactor" : [0.8, 0.8, 0.8, 1], "metallicFactor" : 1, "roughnessFactor" : 1}, "emissiveFactor" : [0, 0, 0], "alphaMode" : "OPAQUE", "doubleSided" : false}, {"name" : "Board_Mat", "pbrMetallicRoughness" : {"baseColorFactor" : [0.8, 0.8, 0.8, 1], "metallicFactor" : 1, "roughnessFactor" : 1}, "emissiveFactor" : [0, 0, 0], "alphaMode" : "OPAQUE", "doubleSided" : false}], "meshes" : [{"primitives" : [{"attributes" : {"POSITION" : 1, "NORMAL" : 2}, "indices" : 0, "material" : 0, "mode" : 4}], "name" : "Mesh"}, {"primitives" : [{"attributes" : {"POSITION" : 4, "NORMAL" : 5}, "indices" : 3, "material" : 1, "mode" : 4}], "name" : "Mesh.001"}, {"primitives" : [{"attributes" : {"POSITION" : 7, "NORMAL" : 8}, "indices" : 6, "material" : 2, "mode" : 4}], "name" : "Mesh.002"}, {"primitives" : [{"attributes" : {"POSITION" : 10, "NORMAL" : 11}, "indices" : 9, "mode" : 4}], "name" : "Mesh.003"}, {"primitives" : [{"attributes" : {"POSITION" : 13, "NORMAL" : 14}, "indices" : 12, "material" : 3, "mode" : 4}], "name" : "Cylinder.002"}, {"primitives" : [{"attributes" : {"POSITION" : 16, "NORMAL" : 17}, "indices" : 15, "material" : 4, "mode" : 4}], "name" : "Cylinder.001"}, {"primitives" : [{"attributes" : {"POSITION" : 19, "NORMAL" : 20}, "indices" : 18, "material" : 5, "mode" : 4}], "name" : "Cylinder"}, {"primitives" : [{"attributes" : {"POSITION" : 22, "NORMAL" : 23}, "indices" : 21, "mode" : 4}], "name" : "Mesh.004"}, {"primitives" : [{"attributes" : {"POSITION" : 25, "NORMAL" : 26, "TEXCOORD_0" : 27}, "indices" : 24, "material" : 6, "mode" : 4}], "name" : "Mesh.005"}, {"primitives" : [{"attributes" : {"POSITION" : 29, "NORMAL" : 30, "TEXCOORD_0" : 31}, "indices" : 28, "material" : 7, "mode" : 4}], "name" : "Mesh.006"}, {"primitives" : [{"attributes" : {"POSITION" : 33, "NORMAL" : 34, "TEXCOORD_0" : 35}, "indices" : 32, "material" : 8, "mode" : 4}], "name" : "Mesh.007"}, {"primitives" : [{"attributes" : {"POSITION" : 37, "NORMAL" : 38, "TEXCOORD_0" : 39}, "indices" : 36, "material" : 9, "mode" : 4}], "name" : "Mesh.008"}, {"primitives" : [{"attributes" : {"POSITION" : 41, "NORMAL" : 42, "TEXCOORD_0" : 43}, "indices" : 40, "material" : 10, "mode" : 4}], "name" : "Mesh.009"}, {"primitives" : [{"attributes" : {"POSITION" : 45, "NORMAL" : 46, "TEXCOORD_0" : 47}, "indices" : 44, "material" : 11, "mode" : 4}], "name" : "Cube.001"}], "nodes" : [{"matrix" : [5.3354573249816895, 0, 0, 0, 0, -2.967611079039853E-06, -18.215066909789797, 0, 0, 1.7466027736663585, -2.8455771079425793E-07, 0, -1.3175256252288818, -119.26443481445312, -62.99723434448242, 1], "mesh" : 0, "name" : "Eraser_Up"}, {"matrix" : [5.3354573249816895, 0, 0, 0, 0, -2.967611079039853E-06, -18.215066909789797, 0, 0, 1.7466027736663585, -2.8455771079425793E-07, 0, -1.3175256252288818, -117.11320495605469, -62.99723434448242, 1], "mesh" : 1, "name" : "EraserBase"}, {"matrix" : [1.8661277294158936, 0, 0, 0, 0, -1.4916296711615362E-06, -9.155557632446166, 0, 0, 1.8661277294158687, -3.04030797808468E-07, 0, 1.5329368114471436, -117.8284912109375, 104.25444030761719, 1], "mesh" : 2, "name" : "Chalk3"}, {"matrix" : [0.9116726702067972, -5.995155440844873E-08, 0.800040657392847, 0, 1.976622968264042, 4.5350466659038733E-07, -2.252426952077359, 0, -7.601109391709033E-08, 1.2129353284835662, 1.775092227925506E-07, 0, -2.928865671157837, -117.8284912109375, 180.99684143066406, 1], "mesh" : 3, "name" : "Chalk2"}, {"matrix" : [-0.2710566603537763, 0.04163506680299468, 1.6806525986463514, 0, 0.08697613821291726, 1.7004247843110503, -0.02809732241620338, 0, -8.207860537724885, 0.39779281982923664, -1.3336232594635304, 0, 0.942558765411377, -117.77130126953125, 124.09574127197266, 1], "mesh" : 4, "name" : "Chalk6"}, {"matrix" : [-0.26783085567305204, 0.033185292384363047, 1.681357580161725, 0, 0.06944621144995528, 1.7013140155226578, -0.02251678361196636, 0, -8.214380184280383, 0.3179030894739006, -1.3147793227547875, 0, 0.942558765411377, -117.77130126953125, 128.63211059570312, 1], "mesh" : 5, "name" : "Chalk5"}, {"matrix" : [1.6006774448382708, 1.3576126656846828E-15, -0.5810590854934731, 0, 2.539890347966037E-08, 1.7028795480728132, 6.996784879603116E-08, 0, 2.840672110906833, -3.638977014947212E-07, 7.825365594702094, 0, 0.942558765411377, -117.77130126953125, 156.94480895996094, 1], "mesh" : 6, "name" : "Chalk4"}, {"matrix" : [1.8661277294158936, 0, 0, 0, 0, -1.4916296711615362E-06, -9.155557632446166, 0, 0, 1.8661277294158687, -3.04030797808468E-07, 0, 1.5329368114471436, -117.8284912109375, 179.35899353027344, 1], "mesh" : 7, "name" : "Chalk1"}, {"matrix" : [10.036404609680176, 0, 0, 0, 0, -2.1240109898187074E-05, -130.37086486816233, 0, 0, 1.5117162466048992, -2.462898381876442E-07, 0, -1.847347617149353, -120.4048843383789, -16.393768310546875, 1], "mesh" : 8, "name" : "Frame_Part_05"}, {"matrix" : [5.171126365661503, 7.808183755572126E-07, 7.80818449043347E-07, 0, -7.777364360382374E-07, 5.150715827941831, -2.2514506760294238E-07, 0, -1.8151900141393883E-05, 5.254746623032586E-06, 120.21458435058445, 0, -11.969208717346191, -113.30026245117188, -17.414491653442383, 1], "mesh" : 9, "name" : "Frame_Part_04"}, {"matrix" : [-5.17112636566121, -2.013710955978144E-06, 4.520742616415084E-07, 0, 2.4861310360221513E-06, -6.3842816352839336, -2.7906599494400403E-07, 0, 1.050949564900484E-05, -5.254745698432945E-06, 120.21458435058537, 0, -11.969208717346191, 119.08868408203125, -17.414491653442383, 1], "mesh" : 10, "name" : "Frame_Part_03"}, {"matrix" : [-5.171126365661229, 5.196252801207365E-14, 2.0137109559781514E-06, 0, 2.4861310604188775E-06, 4.819998535926852E-07, 6.384281635283921, 0, -2.4532947080233254E-12, 126.77622985839807, -9.571339067039272E-06, 0, -11.969208717346191, 1.3853248357772827, -274.3625183105469, 1], "mesh" : 11, "name" : "Frame_Part_02"}, {"matrix" : [5.171126365661621, 0, 0, 0, 0, -1.0401315024759969E-06, -6.384281635284339, 0, 0, 126.77622985839675, -2.0654469519652337E-05, 0, -11.969208717346191, 1.3853248357772827, 239.5374298095703, 1], "mesh" : 12, "name" : "Frame_Part_01"}, {"matrix" : [100, 0, 0, 0, 0, -1.6292067955264296E-05, -99.99999999999866, 0, 0, 99.99999999999866, -1.6292067955264296E-05, 0, 51.781036376953125, 1.5308716297149658, -16.83925437927246, 1], "mesh" : 13, "name" : "Board"}], "scene" : 0, "scenes" : [{"nodes" : [0, 1, 2, 3, 4, 5, 6, 7, 8, 9, 10, 11, 12, 13]}]}